# xmcd
#
# Track frame offsets: 
#        150
#        17543
#        35545
#        50140
#        69393
#        94928
#        112418
#        131368
#        145755
#        160420
#
# Disc length: 2348 seconds
#
# Revision: 0
# Processed by: cddbd v1.5.2PL0 Copyright (c) Steve Scherf et al.
# Submitted via: ExactAudioCopy v0.95b3
#
DISCID=8d092a0a
DTITLE=The Rascals  - Search And Nearness - The Complete Atlantic Disc
DTITLE=ography (1965-1971) - Disc 08
DYEAR=1900
DGENRE=
TTITLE0=Right On
TTITLE1=I Believe
TTITLE2=Thank You Baby
TTITLE3=You Don't Know
TTITLE4=Nama
TTITLE5=Almost Home
TTITLE6=The Letter
TTITLE7=Ready for Love
TTITLE8=Fortunes
TTITLE9=Glory Glory
EXTD=
EXTT0=
EXTT1=
EXTT2=
EXTT3=
EXTT4=
EXTT5=
EXTT6=
EXTT7=
EXTT8=
EXTT9=
PLAYORDER=
